<svg xmlns="http://www.w3.org/2000/svg" width="106" height="106" viewBox="0 0 106 106"><defs><style>.a,.c{fill:none;}.a{stroke:#000;stroke-width:4px;}.b{stroke:none;}</style></defs><g transform="translate(-14 -3.667)"><path d="M106.92,67v9.749H89.08a4.79,4.79,0,0,0-4.315,4.813,4.849,4.849,0,0,0,4.315,4.813h11.367V89.61H89.08a8.075,8.075,0,0,1-.166-16.1h14.769V70.236H89.08v.042a11.3,11.3,0,0,0,0,22.569h14.6V86.375h3.236v9.708H89.08a14.534,14.534,0,0,1,0-29.041ZM60.414,115.279a4.435,4.435,0,0,1,0-8.869,4.149,4.149,0,0,1,4.079,2.622l-1.672.609a2.465,2.465,0,0,0-2.407-1.583,2.791,2.791,0,0,0,0,5.573,2.469,2.469,0,0,0,2.406-1.589l1.673.609a4.153,4.153,0,0,1-4.079,2.628Zm10.105-.119-2.246-3.8h-.52v3.8H65.962V106.53h3.129a2.451,2.451,0,0,1,2.777,2.58,2.083,2.083,0,0,1-1.828,2.162l2.6,3.888h-2.12Zm-2.765-7.143v2.06h1.057c.956,0,1.344-.406,1.344-1.027s-.388-1.033-1.344-1.033H67.754Zm11.2.09h-3.2v1.959h2.837v1.559H75.757v1.953h3.2v1.582h-5v-8.63h5v1.576Zm7.621,7.053-.627-1.78H82.327l-.627,1.78H79.866l3.178-8.631h2.192l3.177,8.631H86.58Zm-3.727-3.279h2.574l-1.284-3.661Zm8.648,1.7h2.705v1.583h-4.5V106.53H91.5v7.048Zm9.849,1.583-.627-1.78H97.1l-.627,1.78H94.636l3.177-8.631h2.192l3.177,8.631H101.35Zm-3.727-3.279H100.2l-1.283-3.661Zm9.723,3.4c-1.852,0-3.3-.89-3.56-2.508l1.852-.424a1.632,1.632,0,0,0,1.78,1.469c.729,0,1.308-.323,1.3-1.051-.006-.813-.962-1.069-2.013-1.392-1.266-.394-2.622-.86-2.622-2.449,0-1.607,1.314-2.515,3.046-2.515,1.517,0,3.046.615,3.392,2.27l-1.732.43a1.42,1.42,0,0,0-1.553-1.236c-.723,0-1.338.3-1.338,1.009,0,.663.848.884,1.828,1.176,1.3.394,2.843.9,2.843,2.616,0,1.833-1.535,2.6-3.225,2.6Zm9.885-7.173h-3.2v1.959h2.837v1.559h-2.837v1.953h3.2v1.582h-5v-8.63h5v1.576Zm6.4,7.053-2.246-3.8h-.52v3.8h-1.792V106.53h3.129a2.451,2.451,0,0,1,2.777,2.58,2.083,2.083,0,0,1-1.828,2.162l2.6,3.888h-2.12Zm-2.765-7.143v2.06h1.057c.956,0,1.344-.406,1.344-1.027s-.388-1.033-1.344-1.033h-1.057ZM63.588,125.23c0,.15,0,.3.01.449,0,.068,0,.077.073.077H64.1c.092,0,.073-.155.068-.236l.014-2.7c0-.072.024-.1.121-.1h.425c.1,0,.077-.174.077-.294s.038-.289-.077-.289c-.082,0-.868,0-1.192,0-.159,0-.289,0-.449,0-.121,0-.116.1-.116.309,0,.135,0,.27.111.27.068,0,.343,0,.42,0,.048,0,.082.015.092.068,0,.014,0,.029,0,.043C63.6,123.179,63.578,124.8,63.588,125.23Zm2.69.488a.521.521,0,0,0,.1,0c.1,0,.126-.348.135-.42s.019-.063.068-.073a3.6,3.6,0,0,1,.6,0,.091.091,0,0,1,.1.067l.034.111c.029.082.053.183.082.265.019.058.024.053.082.053.077,0,.357,0,.439,0,.111,0,.033-.227.019-.265-.044-.135-.053-.275-.1-.41-.019-.058-.57-2.669-.594-2.813-.034-.087,0-.092-.082-.092-.164,0-.338.009-.507,0-.068,0-.063.019-.073.092s-.183.835-.251,1.153c-.086.4-.164.786-.26,1.182-.034.14-.265,1.148-.236,1.153s.038,0,.058,0c.121,0,.232,0,.381,0Zm.632-1.1h-.1c-.135,0-.14,0-.106-.14.024-.106.154-.68.183-.821,0-.009.015-.019.02-.019s.019.01.024.014c.019.058.038.2.058.261.043.183.072.338.116.536.044.174.024.174-.063.174C67,124.627,66.953,124.622,66.91,124.622ZM69,122.61c0,.3.024,2.485.02,2.645s0,.3,0,.449a.044.044,0,0,0,.039.048c.338.014.671-.015,1.009-.01.111,0,.222,0,.328,0s.116-.048.111-.135c0-.135,0-.256,0-.386a.089.089,0,0,0-.1-.092c-.2,0-.4,0-.594,0a.712.712,0,0,1-.1,0c-.058,0-.073-.019-.077-.082v-.072c-.015-.4.014-.816.014-1.216,0-.338,0-.642,0-.941,0-.13,0-.261,0-.386a1.294,1.294,0,0,0-.02-.236c-.009-.029-.024-.067-.058-.067H69.1c-.077,0-.1.053-.106.13v.343Zm2.53,0c0,.3.024,2.485.019,2.645s0,.3,0,.449a.044.044,0,0,0,.039.048c.338.014.671-.015,1.009-.01.111,0,.222,0,.328,0s.116-.048.112-.135c-.005-.135-.005-.256-.005-.386a.089.089,0,0,0-.1-.092c-.2,0-.4,0-.594,0a.712.712,0,0,1-.1,0c-.058,0-.073-.019-.077-.082v-.072c-.015-.4.014-.816.014-1.216,0-.338,0-.642,0-.941,0-.13,0-.261,0-.386a1.294,1.294,0,0,0-.02-.236c-.009-.029-.024-.067-.058-.067h-.453c-.077,0-.1.053-.106.13v.343Zm2.535,2.157h0c0,.121,0,.246,0,.371,0,.155.014.309.024.464,0,.053.014.068.062.077a1.243,1.243,0,0,0,.3.029c.261-.009.521.01.782,0a1.594,1.594,0,0,0,.261-.014c.1-.02.13-.073.13-.217a1.98,1.98,0,0,1,0-.241.189.189,0,0,0-.208-.208c-.068,0-.391,0-.521,0-.217,0-.183.034-.183-.193,0-.183,0-.42,0-.608,0-.1.01-.135.106-.135h.6a.141.141,0,0,0,.164-.155c0-.1.009-.106.009-.208l-.014-.145c-.01-.082-.038-.111-.121-.111-.053,0-.106,0-.159.009-.208.015-.3-.014-.507,0-.067,0-.077-.009-.082-.072a2.974,2.974,0,0,1,.019-.584c0-.077.024-.092.1-.1l.68,0c.092-.01.121,0,.116-.1-.009-.14,0-.285-.009-.424-.01-.077-.034-.092-.121-.092-.145,0-.179,0-.323.014s-.724,0-.864,0c-.2,0-.217-.014-.222.232-.009.193,0,.391,0,.589C74.071,123.285,74.052,124.5,74.061,124.767Zm3.172.627c0-.126,0-.917,0-.98,0-.014.014-.043.034-.043a.031.031,0,0,1,.033.024c.193.376.362.753.536,1.12.024.053.077.208.092.222s.053.02.082.02l.531,0c.063,0,.077-.038.063-.091a8.331,8.331,0,0,0-.377-.782c-.043-.1-.333-.656-.342-.7-.01-.02.063-.053.072-.068a1.224,1.224,0,0,0,.483-.743,1.2,1.2,0,0,0-.232-.922.851.851,0,0,0-.613-.314c-.15-.009-.295,0-.444,0-.13,0-.222,0-.386,0a.12.12,0,0,0-.13.126v.058c-.01.371,0,.743,0,1.11,0,.56-.01,2.037-.01,2.249,0,.063.01.077.068.077.034,0,.072,0,.106,0,.135,0,.217,0,.357,0,.106,0,.068-.174.068-.362Zm0-1.882,0-.487c0-.073-.02-.217.048-.27.092-.068.28,0,.362.058a.64.64,0,0,1,.092.8.467.467,0,0,1-.289.2c-.073.02-.208.044-.213-.072q0-.113,0-.227Zm6.175,1.356c.029-.063.053-.126.077-.188a1.974,1.974,0,0,0,.077-.473A2.954,2.954,0,0,0,83.5,123.2a1.443,1.443,0,0,0-.782-.985,1.357,1.357,0,0,0-.589-.087c-.208,0-.42-.01-.627.01a.1.1,0,0,0-.1.087,1.067,1.067,0,0,0-.02.169c.01.294,0,1.168.01,1.313s-.01.289-.01.42c0,.323,0,.651,0,.975,0,.135,0,.265,0,.4s-.053.208.342.208a2.989,2.989,0,0,0,1.052-.154A1.218,1.218,0,0,0,83.409,124.868Zm-1.4-.5v-.579c0-.367.01-.6,0-.912v-.058c0-.1.019-.106.126-.106a.828.828,0,0,1,.362.077.562.562,0,0,1,.251.256,1.312,1.312,0,0,1,.179.642c0,.13.009.261.009.391,0,.618-.362,1.047-.68,1.047-.213,0-.246.014-.246-.126s.009-.289.009-.434c0-.063,0-.13,0-.2Zm2.6.4h0c0,.121,0,.246,0,.371,0,.155.015.309.024.464,0,.053.014.068.063.077a1.24,1.24,0,0,0,.3.029c.261-.009.521.01.782,0a1.594,1.594,0,0,0,.261-.014c.1-.02.13-.073.13-.217a1.98,1.98,0,0,1,0-.241.189.189,0,0,0-.208-.208c-.068,0-.391,0-.521,0-.217,0-.183.034-.183-.193,0-.183,0-.42,0-.608,0-.1.01-.135.106-.135h.6a.141.141,0,0,0,.164-.155c0-.1.009-.106.009-.208l-.014-.145c-.01-.082-.038-.111-.121-.111-.053,0-.106,0-.159.009-.208.015-.3-.014-.507,0-.067,0-.077-.009-.082-.072a2.946,2.946,0,0,1,.02-.584c0-.077.024-.092.1-.1l.68,0c.092-.01.121,0,.116-.1-.009-.14,0-.285-.009-.424-.01-.077-.034-.092-.121-.092-.145,0-.179,0-.323.014s-.724,0-.864,0c-.2,0-.217-.014-.222.232-.009.193,0,.391,0,.589C84.612,123.285,84.592,124.5,84.6,124.767Zm6.223-2.06c0-.159,0-.289,0-.444,0-.179-.323-.159-.439-.154a1.565,1.565,0,0,0-1.245.811,1.783,1.783,0,0,0-.15.406,2.837,2.837,0,0,0-.048,1.009,1.723,1.723,0,0,0,.309.878,1.56,1.56,0,0,0,1.472.512.158.158,0,0,0,.068-.024.062.062,0,0,0,.029-.048l.015-.275c0-.087,0-.082,0-.169,0-.116-.241-.029-.391-.029a.932.932,0,0,1-.43-.072,1.044,1.044,0,0,1-.435-.637,1.753,1.753,0,0,1-.053-.82,1.039,1.039,0,0,1,.6-.879,1.491,1.491,0,0,1,.651-.024A.039.039,0,0,0,90.825,122.706Zm3.573.318a2.942,2.942,0,0,1,.126.941,3.04,3.04,0,0,1-.116.777,1.313,1.313,0,0,1-.492.758,1.276,1.276,0,0,1-.632.256c-.034,0-.063,0-.1,0s-.058,0-.092,0a1.308,1.308,0,0,1-1.124-1.013,2.83,2.83,0,0,1-.116-.777,2.932,2.932,0,0,1,.126-.941,1.265,1.265,0,0,1,2.418,0Zm-.468,1.293a2.5,2.5,0,0,0-.029-.888,1.107,1.107,0,0,0-.4-.685.579.579,0,0,0-.318-.106.439.439,0,0,0-.188.038.394.394,0,0,0-.126.068,1.064,1.064,0,0,0-.4.685,2.5,2.5,0,0,0-.029.888,1.06,1.06,0,0,0,.4.758.786.786,0,0,0,.343.1.8.8,0,0,0,.347-.1,1.061,1.061,0,0,0,.4-.758Zm2.212,1.076c0-.126,0-.917,0-.98,0-.014.015-.043.034-.043a.032.032,0,0,1,.034.024c.193.376.362.753.536,1.12.024.053.077.208.092.222s.053.02.082.02l.531,0c.063,0,.077-.038.063-.091a8.248,8.248,0,0,0-.377-.782c-.043-.1-.333-.656-.342-.7-.01-.02.063-.053.073-.068a1.225,1.225,0,0,0,.482-.743,1.192,1.192,0,0,0-.232-.922.85.85,0,0,0-.613-.314c-.15-.009-.294,0-.444,0-.13,0-.222,0-.386,0a.12.12,0,0,0-.13.126v.058c-.009.371,0,.743,0,1.11,0,.56-.01,2.037-.01,2.249,0,.063.01.077.068.077.034,0,.073,0,.106,0,.135,0,.217,0,.357,0,.106,0,.067-.174.067-.362Zm0-1.882,0-.487c0-.073-.019-.217.048-.27.092-.068.28,0,.362.058a.639.639,0,0,1,.092.8.467.467,0,0,1-.289.2c-.073.02-.208.044-.212-.072q0-.113,0-.227Zm3.013,1.718c0,.15,0,.3.009.449,0,.068,0,.077.073.077h.434c.092,0,.073-.154.068-.236l.015-2.7c0-.072.024-.1.121-.1h.424c.1,0,.077-.174.077-.294s.038-.289-.077-.289c-.082,0-.868,0-1.192,0-.159,0-.289,0-.449,0-.121,0-.116.1-.116.309,0,.135,0,.27.111.27.067,0,.342,0,.42,0,.048,0,.082.015.091.068,0,.014,0,.029,0,.043,0,.348-.024,1.964-.014,2.4Zm2.25-.463h0c0,.121,0,.246,0,.371,0,.154.015.309.024.464,0,.053.014.068.063.077a1.241,1.241,0,0,0,.3.029c.261-.009.521.01.782,0a1.591,1.591,0,0,0,.261-.014c.1-.02.13-.073.13-.217a1.909,1.909,0,0,1,0-.241.189.189,0,0,0-.208-.208c-.068,0-.391,0-.521,0-.217,0-.183.034-.183-.193,0-.183,0-.42,0-.608,0-.1.01-.135.106-.135h.6a.141.141,0,0,0,.164-.155c0-.1.01-.106.01-.208l-.015-.145c-.01-.082-.038-.111-.121-.111-.053,0-.106,0-.159.009-.208.015-.3-.014-.507,0-.068,0-.077-.009-.082-.072a2.946,2.946,0,0,1,.02-.584c0-.077.024-.092.1-.1l.68,0c.092-.01.121,0,.116-.1-.01-.14,0-.285-.01-.424-.01-.077-.034-.092-.121-.092-.145,0-.179,0-.323.014s-.724,0-.864,0c-.2,0-.217-.014-.222.232-.01.193,0,.391,0,.589,0,.338-.02,1.549-.01,1.819Zm4.317-2.157c0,.3.024,2.485.019,2.645s0,.3,0,.449a.044.044,0,0,0,.038.048c.338.014.671-.015,1.009-.01.111,0,.222,0,.328,0s.116-.048.111-.135c0-.135,0-.256,0-.386a.089.089,0,0,0-.1-.092c-.2,0-.4,0-.594,0a.713.713,0,0,1-.1,0c-.058,0-.073-.019-.077-.082v-.072c-.014-.4.015-.816.015-1.216,0-.338,0-.642,0-.941,0-.13,0-.261,0-.386a1.324,1.324,0,0,0-.019-.236c-.01-.029-.024-.067-.058-.067h-.453c-.077,0-.1.053-.106.13v.343Zm2.974,3.107a.488.488,0,0,0,.1.005c.1,0,.126-.348.135-.42s.019-.063.067-.073a3.6,3.6,0,0,1,.6,0,.091.091,0,0,1,.1.067l.034.111c.029.082.053.183.082.265.019.058.024.053.082.053.077,0,.357,0,.439,0,.111,0,.033-.227.019-.265-.044-.135-.053-.275-.1-.41-.019-.058-.57-2.669-.594-2.813-.034-.087,0-.092-.082-.092-.164,0-.338.009-.507,0-.068,0-.063.019-.073.092s-.183.835-.251,1.153c-.087.4-.164.786-.261,1.182-.033.14-.265,1.148-.236,1.153s.039,0,.058,0c.121,0,.232,0,.382,0Zm.632-1.1h-.1c-.135,0-.14,0-.106-.14.024-.106.155-.68.183-.821,0-.009.015-.019.019-.019s.02.01.024.014c.019.058.038.2.058.261.043.183.072.338.116.536.043.174.024.174-.063.174C109.415,124.627,109.372,124.622,109.328,124.622Zm3.071-2.509a1.1,1.1,0,0,0-.275.048,1.012,1.012,0,0,0-.5.377,1.1,1.1,0,0,0-.164.535.8.8,0,0,0,.072.425,1.9,1.9,0,0,0,.3.377c.1.1.193.2.3.294s.208.164.3.261a.6.6,0,0,1,.092.632.525.525,0,0,1-.594.159,1.174,1.174,0,0,1-.265-.164c-.049-.034-.106-.049-.14.009a.368.368,0,0,0-.038.092,1.5,1.5,0,0,0-.082.362c0,.15.28.193.386.217a1.112,1.112,0,0,0,1.289-.444,1.125,1.125,0,0,0,.1-.3.857.857,0,0,0,.01-.111,1.14,1.14,0,0,0-.294-.8,6.249,6.249,0,0,0-.7-.642.572.572,0,0,1-.154-.541.343.343,0,0,1,.459-.208.558.558,0,0,1,.145.068.212.212,0,0,0,.1.034c.068,0,.077-.048.092-.1.034-.121.092-.217.116-.333s-.082-.154-.188-.188a1.254,1.254,0,0,0-.377-.053Zm1.825,2.654h0c0,.121,0,.246,0,.371,0,.154.014.309.024.464,0,.053.014.068.063.077a1.242,1.242,0,0,0,.3.029c.261-.009.521.01.782,0a1.589,1.589,0,0,0,.261-.014c.1-.02.13-.073.13-.217a1.909,1.909,0,0,1,0-.241.189.189,0,0,0-.208-.208c-.068,0-.391,0-.521,0-.217,0-.183.034-.183-.193,0-.183,0-.42,0-.608,0-.1.009-.135.106-.135h.6a.141.141,0,0,0,.164-.155c0-.1.01-.106.01-.208l-.015-.145c-.009-.082-.038-.111-.12-.111-.053,0-.106,0-.159.009-.208.015-.3-.014-.507,0-.068,0-.077-.009-.082-.072a2.946,2.946,0,0,1,.019-.584c0-.077.024-.092.1-.1l.68,0c.092-.01.121,0,.116-.1-.01-.14,0-.285-.01-.424-.009-.077-.034-.092-.121-.092-.145,0-.179,0-.323.014s-.724,0-.864,0c-.2,0-.217-.014-.222.232-.01.193,0,.391,0,.589,0,.338-.019,1.549-.01,1.819Zm3.172.627c0-.126,0-.917,0-.98,0-.014.015-.043.034-.043a.032.032,0,0,1,.034.024c.193.376.362.753.536,1.12.024.053.077.208.092.222s.053.02.082.02l.531,0c.063,0,.077-.038.063-.091a8.246,8.246,0,0,0-.377-.782c-.043-.1-.333-.656-.342-.7-.009-.02.063-.053.073-.068a1.226,1.226,0,0,0,.483-.743,1.2,1.2,0,0,0-.232-.922.851.851,0,0,0-.613-.314c-.15-.009-.294,0-.444,0-.13,0-.222,0-.386,0a.12.12,0,0,0-.13.126v.058c-.01.371,0,.743,0,1.11,0,.56-.009,2.037-.009,2.249,0,.063.009.077.068.077.033,0,.072,0,.106,0,.135,0,.217,0,.357,0,.106,0,.068-.174.068-.362Zm0-1.882,0-.487c0-.073-.019-.217.048-.27.092-.068.28,0,.362.058a.64.64,0,0,1,.092.8.468.468,0,0,1-.289.2c-.073.02-.208.044-.213-.072q0-.113,0-.227Z" transform="translate(-24 -39.333)"/><g class="a" transform="translate(14 3.667)"><circle class="b" cx="53" cy="53" r="53"/><circle class="c" cx="53" cy="53" r="51"/></g></g></svg>