<?xml version="1.0" standalone="no"?>
<!DOCTYPE svg PUBLIC "-//W3C//DTD SVG 20010904//EN"
 "http://www.w3.org/TR/2001/REC-SVG-20010904/DTD/svg10.dtd">
<svg version="1.0" xmlns="http://www.w3.org/2000/svg"
 width="700.000000pt" height="700.000000pt" viewBox="0 0 700.000000 700.000000"
 preserveAspectRatio="xMidYMid meet">
<metadata>
Created by potrace 1.14, written by Peter Selinger 2001-2017
</metadata>
<g transform="translate(0.000000,700.000000) scale(0.100000,-0.100000)"
fill="#000000" stroke="none">
<path d="M3278 6996 c-1 -2 -42 -6 -89 -10 -47 -4 -95 -8 -105 -10 -10 -2 -46
-7 -79 -11 -32 -4 -68 -9 -80 -11 -11 -2 -45 -8 -75 -14 -83 -15 -89 -16 -180
-40 -47 -12 -95 -24 -107 -26 -38 -7 -261 -83 -364 -124 -881 -351 -1596
-1067 -1949 -1951 -66 -165 -142 -409 -165 -530 -4 -19 -19 -88 -30 -139 0 -3
-4 -27 -9 -55 -4 -27 -9 -63 -12 -79 -3 -16 -7 -50 -9 -75 -3 -25 -8 -82 -12
-126 -16 -160 -9 -562 12 -710 3 -16 7 -48 10 -70 11 -90 16 -123 31 -195 163
-800 577 -1494 1204 -2017 102 -84 305 -233 320 -233 5 0 10 -4 10 -10 0 -5 4
-10 10 -10 5 0 40 -19 77 -43 349 -224 875 -411 1322 -473 25 -3 57 -8 71 -10
165 -26 681 -25 842 1 13 2 46 7 73 10 74 11 87 13 120 19 17 4 46 9 65 12 19
3 78 16 130 29 730 176 1339 549 1857 1137 162 184 362 491 484 745 164 341
285 753 324 1103 4 36 9 81 12 100 8 73 10 519 2 602 -13 144 -22 210 -39 308
-6 36 -13 79 -16 95 -12 67 -75 306 -104 395 -260 786 -771 1443 -1466 1882
-392 247 -863 426 -1304 493 -25 4 -53 9 -62 11 -9 1 -43 6 -75 9 -32 4 -76 9
-98 12 -44 5 -541 13 -547 9z m472 -270 c76 -6 204 -21 256 -30 10 -2 42 -7
69 -11 28 -5 52 -9 55 -10 17 -4 68 -16 85 -19 82 -16 342 -92 400 -116 11 -5
58 -25 105 -44 289 -117 546 -267 795 -465 127 -101 356 -322 446 -431 30 -35
59 -70 66 -78 35 -37 170 -232 235 -337 242 -396 388 -819 452 -1310 23 -179
25 -624 2 -740 -2 -11 -7 -47 -11 -80 -3 -33 -10 -78 -15 -100 -5 -22 -11 -56
-14 -75 -15 -100 -88 -366 -132 -480 -186 -484 -409 -835 -749 -1175 -155
-156 -171 -170 -300 -271 -230 -180 -485 -330 -743 -438 -132 -55 -359 -132
-452 -152 -353 -78 -504 -96 -790 -98 -121 0 -368 12 -379 18 -3 2 -31 7 -61
10 -462 54 -986 253 -1380 524 -87 60 -233 171 -295 223 -99 84 -332 326 -414
429 -96 121 -211 283 -211 298 0 6 -4 12 -8 14 -12 4 -120 196 -175 310 -144
298 -243 619 -287 933 -6 44 -13 94 -15 110 -9 57 -19 251 -19 365 -1 721 238
1421 680 1985 97 125 124 155 269 301 255 257 516 445 845 610 211 105 483
206 658 245 23 5 63 14 90 20 53 12 68 15 150 29 99 17 213 31 317 37 55 3
101 6 102 7 5 4 293 -2 373 -8z"/>
<path d="M3257 5774 c-337 -60 -618 -295 -737 -616 -40 -109 -55 -206 -54
-349 3 -358 211 -681 541 -843 67 -33 144 -61 193 -70 14 -3 36 -8 50 -13 14
-4 314 -9 668 -10 l642 -4 0 321 0 320 -50 1 c-27 0 -73 1 -100 1 -28 0 -54
-2 -58 -6 -4 -4 -7 -100 -7 -214 l0 -207 -520 1 -520 1 -90 27 c-126 38 -225
96 -315 186 -87 87 -139 167 -180 278 -110 302 -6 655 248 844 75 56 175 104
267 130 77 21 100 22 592 24 377 1 513 -1 515 -10 2 -6 4 -54 4 -106 l-1 -95
-498 -2 c-541 -2 -561 -4 -676 -61 -80 -39 -190 -151 -230 -234 -150 -311 16
-668 351 -754 51 -13 130 -16 445 -16 211 -1 386 2 389 5 7 7 10 195 2 202 -3
3 -182 6 -399 8 l-394 2 -56 27 c-245 121 -240 466 10 582 45 21 57 21 631 23
322 1 597 2 613 3 l27 0 0 320 0 320 -612 -1 c-475 -1 -631 -4 -691 -15z"/>
<path d="M1415 3176 c-66 -21 -101 -43 -142 -90 -129 -147 -76 -377 106 -459
65 -29 180 -29 237 1 58 30 96 63 121 108 l22 39 -54 22 -54 21 -23 -34 c-97
-142 -327 -47 -312 129 10 108 122 189 222 159 37 -11 95 -57 104 -82 3 -9 14
-9 48 1 25 7 49 16 54 20 16 14 -15 68 -62 109 -72 64 -175 85 -267 56z"/>
<path d="M4491 3176 c-43 -14 -85 -46 -102 -78 -16 -30 -20 -88 -9 -123 16
-47 58 -77 160 -113 47 -17 92 -33 102 -37 9 -3 21 -19 28 -35 13 -32 2 -63
-30 -80 -50 -27 -143 5 -156 55 -3 14 -12 25 -20 25 -17 0 -114 -21 -114 -25
0 -1 6 -18 14 -36 35 -83 106 -122 221 -122 130 -1 204 52 212 152 8 88 -40
141 -165 182 -97 31 -130 48 -137 70 -14 45 23 79 86 79 33 0 89 -28 89 -45 1
-32 16 -37 73 -20 62 18 63 24 20 83 -50 67 -177 98 -272 68z"/>
<path d="M1855 2895 l-1 -285 61 0 60 0 -2 125 c-2 169 9 169 109 0 l73 -125
68 0 c37 0 67 2 67 5 0 3 -36 59 -80 125 -44 66 -80 121 -80 124 0 2 13 9 29
14 16 6 41 27 56 47 57 74 27 198 -58 238 -27 13 -65 17 -169 17 l-133 0 0
-285z m262 159 c35 -47 3 -100 -62 -104 -84 -5 -82 -6 -82 63 0 58 2 62 26 67
39 9 103 -6 118 -26z"/>
<path d="M2383 2895 l1 -285 163 0 c138 0 163 2 164 15 1 8 2 32 2 53 l1 37
-104 0 -105 0 -3 63 c-2 34 1 62 5 63 4 0 46 1 93 2 l85 2 3 53 3 53 -53 -2
c-29 -1 -72 -1 -95 0 l-43 1 0 63 0 62 93 0 c125 0 122 -2 120 48 0 23 -2 45
-2 50 -1 4 -75 7 -165 7 l-164 0 1 -285z"/>
<path d="M2945 3078 c-21 -57 -68 -185 -105 -285 l-68 -183 62 0 61 0 20 58
20 57 120 3 120 3 19 -61 19 -60 63 0 64 0 -11 28 c-9 23 -160 430 -191 515
-10 26 -12 27 -83 27 l-73 0 -37 -102z m154 -135 l39 -111 -36 -4 c-20 -1 -58
-1 -83 2 l-47 5 41 113 c22 62 41 111 43 109 2 -2 21 -53 43 -114z"/>
<path d="M3422 2895 l0 -285 150 0 149 0 -3 53 -3 52 -85 0 -85 0 -2 155 c-1
85 -2 190 -3 233 l0 77 -59 0 -58 0 -1 -285z"/>
<path d="M3956 3172 c-3 -5 -32 -83 -65 -173 -33 -90 -78 -213 -100 -273 -23
-60 -41 -111 -41 -113 0 -2 28 -3 62 -1 l61 3 20 58 19 57 118 -1 118 -1 11
-29 c37 -98 28 -89 92 -89 33 0 59 2 59 5 0 3 -13 40 -29 83 -16 42 -53 140
-81 217 -28 77 -61 167 -73 200 l-23 60 -71 3 c-39 2 -74 -1 -77 -6z m120
-232 c19 -52 34 -100 34 -105 0 -9 -149 -9 -157 -1 -3 3 47 153 67 201 9 21
14 25 18 15 3 -8 20 -58 38 -110z"/>
<path d="M4910 2895 l0 -285 165 0 165 0 0 53 0 53 -105 -1 -106 -1 3 65 3 66
90 -1 91 -1 -2 46 c-1 25 -2 49 -3 52 0 4 -36 7 -78 7 -43 0 -84 1 -90 1 -9 1
-13 21 -13 64 l0 63 103 0 102 -1 3 53 3 52 -165 0 -166 0 0 -285z"/>
<path d="M5362 2895 l0 -285 59 0 59 0 0 125 c0 113 2 125 18 125 12 0 40 -39
91 -125 l73 -125 69 0 c54 0 68 3 63 13 -4 6 -42 64 -84 127 l-77 115 38 17
c106 45 106 217 -1 277 -33 18 -54 21 -173 21 l-135 0 0 -285z m242 174 c30
-14 43 -59 24 -89 -14 -22 -50 -34 -108 -34 l-35 0 -3 67 -3 67 50 0 c28 0 61
-5 75 -11z"/>
<path d="M1660 2130 c0 -14 7 -20 21 -20 19 0 20 -5 19 -72 -2 -125 -2 -130
18 -126 15 3 17 16 18 97 1 87 2 95 22 102 12 5 22 15 22 24 0 12 -13 15 -60
15 -53 0 -60 -2 -60 -20z"/>
<path d="M1897 2143 c-6 -9 -47 -206 -47 -222 0 -18 29 -12 39 7 13 24 49 25
56 2 3 -10 13 -17 23 -16 19 3 20 7 9 56 -5 19 -15 68 -24 108 -12 58 -19 72
-33 72 -11 0 -21 -3 -23 -7z m30 -132 c1 -11 -5 -22 -13 -25 -12 -5 -15 -2
-10 10 3 8 6 23 6 31 0 21 13 8 17 -16z"/>
<path d="M2057 2143 c-3 -7 -1 -203 2 -226 0 -4 22 -7 48 -5 35 2 47 7 49 21
2 13 -5 17 -27 17 -33 0 -31 -6 -30 118 1 75 -1 82 -18 82 -11 0 -21 -3 -24
-7z"/>
<path d="M2223 2030 l0 -120 49 0 c41 0 48 3 48 19 0 14 -8 21 -27 23 -28 3
-28 3 -29 88 -2 112 -1 110 -22 110 -17 0 -19 -10 -19 -120z"/>
<path d="M2390 2035 c0 -63 3 -116 8 -116 50 -9 84 -4 92 11 12 22 4 30 -32
30 -24 0 -28 4 -28 30 0 27 3 30 30 30 23 0 30 4 30 20 0 16 -7 20 -30 20 -25
0 -30 4 -30 25 0 21 5 25 30 25 23 0 30 4 30 20 0 17 -7 20 -50 20 l-50 0 0
-115z"/>
<path d="M2560 2030 c0 -113 1 -120 20 -120 17 0 20 7 21 48 l0 47 22 -45 c15
-30 29 -46 45 -48 27 -4 27 -1 2 48 -24 47 -25 58 -4 81 12 13 15 28 10 53 -8
41 -30 56 -80 56 l-36 0 0 -120z m73 66 c8 -21 -4 -56 -19 -56 -9 0 -14 12
-14 35 0 36 22 50 33 21z"/>
<path d="M2879 2143 c-5 -27 -5 -223 0 -224 61 -10 93 0 117 35 35 55 25 150
-19 181 -22 15 -96 21 -98 8z m79 -45 c25 -31 18 -135 -9 -139 -31 -6 -33 -2
-35 66 0 39 1 73 3 78 6 11 29 8 41 -5z"/>
<path d="M3089 2118 c0 -18 -1 -68 -2 -111 -1 -45 2 -82 8 -87 6 -5 30 -8 53
-7 37 1 42 4 40 22 -2 13 -12 21 -30 23 -23 3 -28 8 -28 32 0 24 5 29 27 32
17 2 29 10 31 21 3 13 -3 17 -27 17 -26 0 -31 4 -31 25 0 21 5 25 30 25 23 0
30 4 30 20 0 17 -7 20 -50 20 -50 0 -50 0 -51 -32z"/>
<path d="M3424 2134 c-64 -31 -71 -145 -14 -197 36 -32 83 -34 88 -4 3 13 -3
17 -26 17 -38 0 -53 19 -59 73 -6 49 21 87 62 87 18 0 25 5 25 20 0 25 -31 26
-76 4z"/>
<path d="M3609 2135 c-45 -25 -58 -127 -23 -182 52 -81 154 -32 154 73 0 102
-57 149 -131 109z m71 -35 c29 -29 30 -101 3 -132 -20 -22 -46 -23 -64 -2 -20
24 -16 109 6 134 23 25 30 25 55 0z"/>
<path d="M3810 2030 c0 -113 1 -120 20 -120 17 0 20 7 21 48 l0 47 22 -47 c17
-37 27 -48 44 -48 28 0 28 0 -1 58 -24 47 -24 48 -5 71 42 52 9 111 -61 111
l-40 0 0 -120z m74 58 c7 -12 6 -21 -3 -32 -21 -25 -31 -19 -31 20 0 37 14 42
34 12z"/>
<path d="M4007 2136 c-7 -18 1 -26 25 -26 18 0 19 -7 18 -87 -3 -114 -3 -113
15 -113 17 0 17 0 21 100 1 41 2 81 3 88 1 6 10 12 21 12 13 0 20 7 20 20 0
18 -7 20 -59 20 -41 0 -60 -4 -64 -14z"/>
<path d="M4199 2133 c-5 -119 -2 -206 6 -212 5 -4 28 -7 50 -7 33 1 40 4 40
21 0 14 -8 21 -27 23 -23 3 -28 8 -28 32 0 24 5 29 28 32 16 2 27 9 27 18 0 9
-11 16 -27 18 -22 3 -28 9 -28 28 0 20 5 24 30 24 23 0 30 4 30 20 0 17 -7 20
-50 20 -41 0 -50 -3 -51 -17z"/>
<path d="M4482 2031 l2 -121 48 0 c41 0 48 3 48 19 0 14 -8 21 -27 23 l-28 3
0 95 c-1 90 -2 95 -23 98 -22 3 -22 2 -20 -117z"/>
<path d="M4696 2133 c-8 -29 -37 -156 -42 -190 -4 -28 -2 -33 15 -33 12 0 21
6 21 14 0 13 20 26 40 26 5 0 12 -9 15 -20 6 -20 29 -27 39 -12 2 4 -2 34 -10
67 -7 33 -16 76 -19 95 -9 57 -15 70 -35 70 -10 0 -21 -8 -24 -17z m34 -124
c0 -10 -6 -19 -14 -19 -9 0 -12 8 -8 25 5 28 22 24 22 -6z"/>
<path d="M4881 2131 c-31 -31 -26 -64 14 -104 52 -52 44 -97 -12 -76 -20 7
-23 5 -23 -14 0 -20 6 -23 38 -25 78 -5 99 65 38 127 -44 45 -47 68 -8 73 36
4 36 32 0 36 -17 2 -34 -4 -47 -17z"/>
<path d="M5044 2035 c-1 -77 3 -115 10 -116 6 0 25 -2 43 -4 33 -3 60 16 48
35 -3 5 -19 10 -34 10 -24 0 -28 4 -26 28 1 22 6 28 28 30 40 5 38 42 -2 42
-22 0 -28 4 -26 18 2 9 4 20 4 25 1 4 12 7 25 7 20 0 36 16 36 36 0 2 -24 4
-53 4 l-53 0 0 -115z"/>
<path d="M5211 2030 c0 -111 2 -120 19 -120 15 0 19 9 22 47 l3 46 23 -46 c16
-33 30 -47 43 -47 16 0 19 4 14 23 -4 12 -13 32 -21 44 -18 28 -18 41 1 59 21
21 19 77 -3 97 -11 10 -35 17 -60 17 l-40 0 -1 -120z m74 69 c11 -16 -4 -59
-20 -59 -10 0 -15 11 -15 35 0 35 20 49 35 24z"/>
</g>
</svg>
